<svg height="470pt" viewBox="0 -84 470.64 470" width="470pt" xmlns="http://www.w3.org/2000/svg"><path d="m423.703125 4.320312h-51.726563 21.496094c13.253906 0 24 10.742188 24 24v203.023438c0 13.257812-10.746094 24-24 24h-21.496094 51.726563c13.761719 0 24.90625-11.152344 24.90625-24.910156v-201.210938c0-13.75-11.152344-24.902344-24.90625-24.902344zm0 0" fill="#db785a"/><path d="m423.703125 259.34375h-51.726563v-8h51.726563c11.527344 0 20.90625-9.375 20.90625-20.902344v-201.21875c0-11.527344-9.378906-20.902344-20.90625-20.902344h-51.726563v-8h51.726563c15.9375 0 28.90625 12.96875 28.90625 28.902344v201.210938c0 15.941406-12.96875 28.910156-28.90625 28.910156zm0 0" fill="#63312d"/><path d="m393.480469 255.34375h-322.503907c-13.257812 0-24-10.742188-24-24v-203.023438c0-13.257812 10.742188-24 24-24h322.503907c13.253906 0 24 10.742188 24 24v203.023438c0 13.257812-10.746094 24-24 24zm0 0" fill="#f9a287"/><path d="m60.472656 244.847656v-211.160156c0-8.757812 7.101563-15.863281 15.863282-15.863281h330.640624c3.113282 0 6.054688.640625 8.785157 1.710937-3.515625-8.894531-12.144531-15.214844-22.289063-15.214844h-322.496094c-13.257812 0-24 10.742188-24 24v203.023438c0 10.144531 6.320313 18.777344 15.214844 22.289062-1.078125-2.730468-1.71875-5.679687-1.71875-8.785156zm0 0" fill="#ffc8bb"/><path d="m393.480469 259.34375h-322.503907c-15.441406 0-28-12.558594-28-28v-203.023438c0-15.441406 12.558594-28 28-28h322.503907c15.441406 0 28 12.558594 28 28v203.023438c0 15.441406-12.570313 28-28 28zm-322.503907-251.023438c-11.03125 0-20 8.96875-20 20v203.023438c0 11.03125 8.96875 20 20 20h322.503907c11.03125 0 20-8.96875 20-20v-203.023438c0-11.03125-8.96875-20-20-20zm0 0" fill="#63312d"/><path d="m77.59375 34.414062h311.34375v192.546876h-311.34375zm0 0" fill="#f8f3f3"/><path d="m90.824219 47.808594h298.113281v-13.394532h-311.34375v192.546876h13.230469zm0 0" fill="#e1dddd"/><path d="m388.9375 230.960938h-311.34375c-2.210938 0-4-1.792969-4-4v-192.546876c0-2.207031 1.789062-4 4-4h311.34375c2.207031 0 4 1.792969 4 4v192.546876c0 2.214843-1.785156 4-4 4zm-307.34375-8h303.34375v-184.546876h-303.34375zm0 0" fill="#63312d"/><path d="m372.007812 255.367188v13.601562c0 15.839844-12.878906 28.71875-28.800781 28.71875h-310.480469c-5.917968 0-11.4375-1.757812-16-4.878906h-.078124c-7.601563-5.199219-12.640626-13.921875-12.640626-23.839844v-13.601562zm0 0" fill="#f9dd9d"/><path d="m15.367188 268.726562v15.363282c0 3.039062.480468 6 1.28125 8.71875-7.601563-5.199219-12.640626-13.921875-12.640626-23.839844v-13.601562h368v13.359374zm0 0" fill="#ffeecf"/><path d="m343.222656 301.710938h-310.46875c-18.058594 0-32.753906-14.695313-32.753906-32.75v-13.617188c0-2.207031 1.792969-4 4-4h367.976562c2.207032 0 4 1.792969 4 4v13.617188c0 18.054687-14.695312 32.75-32.753906 32.75zm-335.222656-42.367188v9.617188c0 13.648437 11.105469 24.75 24.753906 24.75h310.476563c13.648437 0 24.753906-11.101563 24.753906-24.75v-9.617188zm0 0" fill="#63312d"/><path d="m371.976562 255.34375v13.617188c0 15.878906-12.871093 28.75-28.753906 28.75h94.664063c15.882812 0 28.753906-12.871094 28.753906-28.75v-13.617188zm0 0" fill="#efc36a"/><path d="m437.886719 301.710938h-94.664063c-2.207031 0-4-1.789063-4-4 0-2.207032 1.792969-4 4-4 13.648438 0 24.753906-11.101563 24.753906-24.75v-13.617188c0-2.207031 1.792969-4 4-4h94.664063c2.207031 0 4 1.792969 4 4v13.617188c0 18.054687-14.695313 32.75-32.753906 32.75zm-73.238281-8h73.238281c13.648437 0 24.753906-11.101563 24.753906-24.75v-9.617188h-86.664063v9.617188c0 9.878906-4.390624 18.742187-11.328124 24.75zm0 0" fill="#63312d"/><path d="m131.558594 78.023438h203.410156v105.335937h-203.410156zm0 0" fill="#82d9ff"/><g fill="#63312d"><path d="m182 149.953125h-35.503906v-6.625l33.679687-46.625h10.464844v45.664063h9.589844v7.585937h-9.589844v15.445313h-8.640625zm.382812-7.585937v-36.550782l-25.808593 36.550782zm0 0"/><path d="m233.167969 94.976562c19.097656 0 24.089843 15.160157 24.089843 35.015626 0 20.152343-4.992187 35.40625-24.089843 35.40625-19.183594 0-24.175781-15.253907-24.175781-35.40625 0-19.855469 4.992187-35.015626 24.175781-35.015626zm0 7.960938c-13.71875 0-15.535157 12.664062-15.535157 27.054688 0 14.96875 1.824219 27.449218 15.535157 27.449218 13.625 0 15.457031-12.480468 15.457031-27.449218 0-14.390626-1.824219-27.054688-15.457031-27.054688zm0 0"/><path d="m302.671875 149.953125h-35.503906v-6.625l33.679687-46.625h10.464844v45.664063h9.589844v7.585937h-9.589844v15.445313h-8.640625zm.382813-7.585937v-36.550782l-25.808594 36.550782zm0 0"/></g></svg>