<svg id="Capa_1" enable-background="new 0 0 512 512" height="512" viewBox="0 0 512 512" width="512" xmlns="http://www.w3.org/2000/svg"><g><g><g><path d="m462.183 111.955h-98.63v-25.664c0-6.322 5.125-11.447 11.447-11.447h75.736c6.322 0 11.447 5.125 11.447 11.447z" fill="#557983"/><path d="m462.18 86.29v25.67h-29.35v-25.67c0-6.32-5.12-11.45-11.44-11.45h29.35c6.32 0 11.44 5.13 11.44 11.45z" fill="#47666b"/></g><g><path d="m100.432 111.955h-53.987v-25.664c0-6.322 5.125-11.447 11.447-11.447h31.094c6.322 0 11.447 5.125 11.447 11.447v25.664z" fill="#557983"/><path d="m100.43 86.29v25.67h-23.44v-25.67c0-6.32-5.12-11.45-11.44-11.45h23.44c6.32 0 11.44 5.13 11.44 11.45z" fill="#47666b"/></g><g><path d="m184.704 111.955h-53.987v-25.664c0-6.322 5.125-11.447 11.447-11.447h31.094c6.322 0 11.447 5.125 11.447 11.447v25.664z" fill="#557983"/><path d="m184.7 86.29v25.67h-23.44v-25.67c0-6.32-5.12-11.45-11.44-11.45h23.44c6.32 0 11.44 5.13 11.44 11.45z" fill="#47666b"/></g><g><path d="m504.5 122.63v279.76c0 9.48-7.69 17.17-17.17 17.17h-462.66c-9.48 0-17.17-7.69-17.17-17.17v-279.76c0-9.48 7.69-17.17 17.17-17.17h462.66c9.48 0 17.17 7.69 17.17 17.17z" fill="#c86f5c"/><path d="m441 333.11c0 32.82-11.6 62.93-30.93 86.45h-210.72c-19.33-23.52-30.93-53.63-30.93-86.45 0-75.27 61.02-136.29 136.29-136.29s136.29 61.02 136.29 136.29z" fill="#ba5d4f"/><path d="m504.5 122.633v279.761c0 9.478-7.692 17.17-17.17 17.17h-34.89c9.49 0 17.17-7.692 17.17-17.17v-279.761c0-9.489-7.681-17.17-17.17-17.17h34.89c9.478 0 17.17 7.68 17.17 17.17z" fill="#ba5d4f"/><path d="m92.135 105.459h-67.463c-9.483 0-17.17 7.688-17.17 17.17v279.759c0 9.483 7.688 17.17 17.17 17.17h67.463z" fill="#a34f41"/><path d="m92.135 227.384v-121.925h-67.463c-9.483 0-17.17 7.688-17.17 17.17v104.754h84.633z" fill="#873f30"/><path d="m60.66 105.459h31.476v314.1h-31.476z" fill="#873f30"/><path d="m504.5 122.633v76.671h-497v-76.671c0-9.489 7.692-17.17 17.17-17.17h462.66c9.478 0 17.17 7.68 17.17 17.17z" fill="#a9d3d8"/><path d="m504.5 122.633v76.671h-34.89v-76.671c0-9.489-7.681-17.17-17.17-17.17h34.89c9.478 0 17.17 7.68 17.17 17.17z" fill="#90bac4"/><g><path d="m169.298 199.668h-77.163v-41.181c0-6.322 5.125-11.447 11.447-11.447h54.269c6.322 0 11.447 5.125 11.447 11.447z" fill="#eef4f5"/><path d="m169.301 158.484v41.186h-30.288v-41.186c0-6.319-5.128-11.447-11.447-11.447h30.288c6.319.001 11.447 5.129 11.447 11.447z" fill="#cbe5e7"/></g></g><g><g><g><circle cx="304.71" cy="300.87" fill="#eef4f5" r="136.286"/><path d="m440.996 300.87c0 75.275-61.023 136.286-136.286 136.286-12.34 0-24.302-1.637-35.668-4.728 68.509-4.762 122.596-61.847 122.596-131.559 0-69.711-54.086-126.797-122.596-131.559 11.367-3.091 23.329-4.728 35.668-4.728 75.263.001 136.286 61.025 136.286 136.288z" fill="#cbe5e7"/></g></g><g><g><circle cx="304.71" cy="300.87" fill="#4dcb8f" r="104.048"/><path d="m408.758 300.87c0 57.469-46.588 104.048-104.048 104.048-9.421 0-18.553-1.25-27.231-3.609 52.304-3.635 93.596-47.218 93.596-100.439s-41.292-96.803-93.596-100.439c8.678-2.36 17.81-3.609 27.231-3.609 57.46-.001 104.048 46.588 104.048 104.048z" fill="#1dc17c"/></g></g><g><g><path d="m357.299 264.6c-12.884-12.841-33.739-12.807-46.581.078l-6.038 6.058-6.058-6.038c-12.884-12.841-33.739-12.806-46.58.078-12.841 12.884-12.806 33.739.078 46.58l46.88 46.725c3.223 3.212 8.44 3.204 11.652-.02l46.725-46.881c12.841-12.884 12.806-33.738-.078-46.58z" fill="#fc5a95"/><path d="m357.38 311.184-46.731 46.878c-3.212 3.221-8.427 3.231-11.648.02l-13.063-13.023c2.426.442 5.019-.275 6.895-2.161l44.03-44.168c12.012-12.041 12.071-31.488.206-43.608 7.376.678 14.575 3.83 20.232 9.478 12.886 12.837 12.916 33.698.079 46.584z" fill="#fb3a82"/></g></g></g></g><g><path d="m487.33 97.958h-17.646v-11.667c0-10.447-8.5-18.947-18.947-18.947h-75.737c-10.447 0-18.947 8.5-18.947 18.947v11.668h-163.849v-11.668c0-10.447-8.5-18.947-18.947-18.947h-31.094c-10.447 0-18.947 8.5-18.947 18.947v11.668h-15.284v-11.668c0-10.447-8.5-18.947-18.947-18.947h-31.093c-10.447 0-18.947 8.5-18.947 18.947v11.668h-14.273c-13.604 0-24.67 11.067-24.67 24.671v155.822c0 4.143 3.358 7.5 7.5 7.5s7.5-3.357 7.5-7.5v-71.654h69.633v205.26h-59.965c-5.332 0-9.67-4.338-9.67-9.67v-86.909c0-4.143-3.358-7.5-7.5-7.5s-7.5 3.357-7.5 7.5v86.909c0 13.604 11.067 24.67 24.67 24.67h67.427c.013 0 .026.002.039.002s.026-.002.039-.002h143.664c20.465 11.214 43.936 17.599 68.872 17.599s48.407-6.385 68.871-17.599h113.748c13.604 0 24.67-11.066 24.67-24.67v-279.76c0-13.604-11.066-24.67-24.67-24.67zm-349.114-11.667c0-2.177 1.771-3.947 3.947-3.947h31.094c2.176 0 3.947 1.771 3.947 3.947v11.668h-38.987v-11.668zm-84.271 0c0-2.177 1.771-3.947 3.947-3.947h31.094c2.176 0 3.947 1.771 3.947 3.947v11.668h-38.988zm-38.943 36.339c0-5.333 4.338-9.671 9.67-9.671h370.898c4.143 0 7.5-3.357 7.5-7.5s-3.357-7.5-7.5-7.5h-24.518v-11.668c0-2.177 1.771-3.947 3.947-3.947h75.736c2.177 0 3.947 1.771 3.947 3.947v11.667h-22.082c-4.143 0-7.5 3.357-7.5 7.5s3.357 7.5 7.5 7.5h54.73c5.332 0 9.67 4.338 9.67 9.67v69.17h-98.709c-25.169-21.625-57.874-34.713-93.581-34.713-35.708 0-68.413 13.088-93.582 34.713h-34.331v-33.311c0-10.447-8.5-18.947-18.947-18.947h-54.269c-10.447 0-18.947 8.5-18.947 18.947v33.311h-69.632zm84.633 69.168v-33.311c0-2.177 1.771-3.947 3.947-3.947h54.269c2.177 0 3.947 1.771 3.947 3.947v33.311zm0 220.26v-205.26h96.419c-21.876 25.233-35.13 58.134-35.13 94.072 0 44.755 20.556 84.796 52.72 111.188zm76.289-111.188c0-71.013 57.773-128.785 128.786-128.785s128.785 57.772 128.785 128.785-57.772 128.786-128.785 128.786-128.786-57.773-128.786-128.786zm311.406 111.188h-91.555c32.163-26.391 52.72-66.432 52.72-111.188 0-35.938-13.254-68.839-35.129-94.072h83.634v195.59c0 5.332-4.338 9.67-9.67 9.67z"/><path d="m304.71 189.322c-22.941 0-44.986 6.919-63.751 20.01-3.397 2.37-4.23 7.045-1.86 10.442 2.37 3.398 7.046 4.229 10.442 1.86 16.235-11.326 35.312-17.313 55.169-17.313 53.236 0 96.548 43.312 96.548 96.548s-43.312 96.548-96.548 96.548c-53.237 0-96.548-43.312-96.548-96.548 0-19.735 5.919-38.716 17.118-54.889 2.358-3.405 1.509-8.077-1.896-10.436-3.406-2.359-8.078-1.508-10.436 1.896-12.944 18.693-19.786 40.627-19.786 63.428 0 61.508 50.04 111.548 111.548 111.548s111.548-50.04 111.548-111.548-50.04-111.546-111.548-111.546z"/><path d="m293.705 363.393c2.971 2.962 6.916 4.593 11.11 4.593h.027c4.204-.008 8.153-1.651 11.122-4.629l46.725-46.882c15.739-15.793 15.696-41.446-.096-57.187-15.794-15.739-41.447-15.697-57.188.096l-.743.746-.747-.744c-15.79-15.739-41.445-15.696-57.186.097-15.74 15.793-15.697 41.446.096 57.188zm-36.352-93.322c4.963-4.979 11.489-7.469 18.019-7.469 6.499 0 13 2.469 17.956 7.408l6.059 6.038c2.933 2.924 7.682 2.915 10.606-.019l6.037-6.058c9.9-9.935 26.039-9.964 35.975-.06 9.935 9.9 9.962 26.038.061 35.973l-46.725 46.881c-.144.145-.319.218-.522.219-.001 0-.001 0-.002 0-.202 0-.377-.073-.521-.217l-46.88-46.724c-9.937-9.899-9.964-26.037-.063-35.972z"/><path d="m124.724 314.632c-4.142 0-7.5 3.357-7.5 7.5v.118c0 4.143 3.358 7.5 7.5 7.5s7.5-3.357 7.5-7.5v-.118c0-4.143-3.358-7.5-7.5-7.5z"/><path d="m124.724 340.919c-4.142 0-7.5 3.357-7.5 7.5v.118c0 4.143 3.358 7.5 7.5 7.5s7.5-3.357 7.5-7.5v-.118c0-4.143-3.358-7.5-7.5-7.5z"/><path d="m124.724 367.206c-4.142 0-7.5 3.357-7.5 7.5v.119c0 4.143 3.358 7.5 7.5 7.5s7.5-3.357 7.5-7.5v-.119c0-4.143-3.358-7.5-7.5-7.5z"/></g></g></svg>